<svg width="17" height="10" viewBox="0 0 17 10" fill="none" xmlns="http://www.w3.org/2000/svg">
<path d="M16.52 1.256C16.44 1.544 16.288 1.776 16.064 1.952C15.952 2.016 15.808 2.088 15.632 2.168L13.784 2.84L12.272 3.656L13.088 3.92C13.68 4.048 14.04 4.232 14.168 4.472C14.248 4.584 14.288 4.712 14.288 4.856C14.288 5.032 14.24 5.208 14.144 5.384C14.016 5.576 13.928 5.696 13.88 5.744C13.544 6.032 13.152 6.176 12.704 6.176C12.256 6.176 11.712 6 11.072 5.648L10.232 5.192L5.912 7.688C5.56 7.912 5.216 8.104 4.88 8.264C4.96 8.216 4.632 8.376 3.896 8.744L2.984 9.176C2.504 9.368 2.192 9.464 2.048 9.464C1.616 9.464 1.272 9.36 1.016 9.152C0.808 9.008 0.68 8.832 0.632 8.624C0.264 8.112 0.0799999 7.768 0.0799999 7.592L0.32 6.92L0.656 6.416C0.8 6.272 1.08 6.224 1.496 6.272C1.624 6.32 1.768 6.432 1.928 6.608L2.144 6.92C2.32 7 2.456 7.032 2.552 7.016C2.728 7.016 3.04 6.896 3.488 6.656L5.672 5.504L8.288 3.992C7.872 3.656 7.664 3.28 7.664 2.864C7.664 2.72 7.672 2.624 7.688 2.576C7.816 2.176 8.088 1.872 8.504 1.664C8.68 1.568 8.856 1.52 9.032 1.52C9.432 1.52 9.752 1.64 9.992 1.88L10.4 2.336L11.912 1.472L13.28 0.775999L14.024 0.487999C14.68 0.184 15.184 0.0319996 15.536 0.0319996C15.712 0.0319996 15.904 0.0879996 16.112 0.2C16.416 0.328 16.568 0.608 16.568 1.04L16.52 1.256Z" fill="black"/>
</svg>
